<?xml version="1.0" encoding="UTF-8"?>
<svg width="21px" height="28px" viewBox="0 0 21 28" version="1.1" xmlns="http://www.w3.org/2000/svg" xmlns:xlink="http://www.w3.org/1999/xlink">
    <!-- Generator: Sketch 50.2 (55047) - http://www.bohemiancoding.com/sketch -->
    <title>Icons/ @Filter@0,5x</title>
    <desc>Created with Sketch.</desc>
    <defs>
        <path d="M13.69025,19.4371242 L13.69025,20.495817 C13.69025,20.9894771 14.0816667,21.3879739 14.56525,21.3879739 C15.04825,21.3879739 15.44025,20.9894771 15.44025,20.495817 L15.44025,19.4311765 C15.9763333,19.1159477 16.3426667,18.5330719 16.3426667,17.8609804 C16.3426667,16.8617647 15.54525,16.0469281 14.56525,16.0469281 C13.5846667,16.0469281 12.78725,16.8617647 12.78725,17.8609804 C12.78725,18.5211765 13.13725,19.1159477 13.69025,19.4371242 M22.69575,23.309085 C22.69575,23.5232026 22.64675,25.4324183 20.9469167,25.5037908 C18.41,25.604902 8.32475,25.5156863 8.19933333,25.5097386 C8.04358333,25.5097386 6.67741667,25.4324183 6.41666667,22.9403268 L6.41666667,12.6032026 L22.69575,12.6032026 L22.69575,23.309085 Z M14.53025,1.78431373 C19.4448333,1.78431373 19.7265833,5.94176471 19.7423333,6.38784314 L19.7423333,10.8188889 L9.31875,10.8188889 L9.31816667,6.63169935 C9.32341667,6.42947712 9.49258333,1.78431373 14.53025,1.78431373 Z M21.4923333,10.8188889 L21.49175,6.36405229 C21.4369167,4.16339869 19.9109167,0 14.53025,0 C9.149,0 7.62358333,4.30614379 7.56875,6.6079085 L7.56875,10.8188889 L5.54166667,10.8188889 C5.05866667,10.8188889 4.66666667,11.2173856 4.66666667,11.7110458 L4.66666667,22.9879085 C4.66666667,23.0176471 4.66841667,23.0473856 4.67133333,23.0771242 C5.00908333,26.5089542 7.1645,27.3594771 8.20633333,27.2940523 C8.47175,27.3 12.5399167,27.3356863 16.12975,27.3356863 C18.1825,27.3356863 20.0795,27.3237908 21.0180833,27.2881046 C23.7288333,27.175098 24.44575,24.6354248 24.44575,23.309085 L24.44575,11.7110458 C24.44575,11.2173856 24.05375,10.8188889 23.57075,10.8188889 L21.4923333,10.8188889 Z" id="path-1"></path>
    </defs>
    <g id="Assets" stroke="none" stroke-width="1" fill="none" fill-rule="evenodd">
        <g id="10---Profile" transform="translate(-538.000000, -644.000000)">
            <g id="Button-Filter" transform="translate(375.000000, 637.000000)">
                <g id="Icons-/-Locked" transform="translate(159.000000, 7.000000)">
                    <mask id="mask-2" fill="white">
                        <use xlink:href="#path-1"></use>
                    </mask>
                    <use id="Locked" fill="#1A1919" fill-rule="evenodd" xlink:href="#path-1"></use>
                    <g id="colors-/-white" mask="url(#mask-2)" fill="#FFFFFF" fill-rule="evenodd">
                        <g transform="translate(0.000000, -0.000000)" id="Rectangle-334-Copy">
                            <rect x="0" y="0" width="28" height="27.9641485"></rect>
                        </g>
                    </g>
                </g>
            </g>
        </g>
    </g>
</svg>